<svg version="1.2" xmlns="http://www.w3.org/2000/svg" viewBox="0 0 448 512" width="448" height="512">
	<title>square-facebook-brands-svg</title>
	<style>
		.s0 { fill: #ffffff } 
	</style>
	<path id="Layer" class="s0" d="m418.4 35.7c5.8 2.4 11.1 5.9 15.5 10.4 4.5 4.4 8 9.7 10.4 15.5 2.5 5.9 3.7 12.1 3.7 18.4v352c0 6.3-1.2 12.5-3.7 18.4-2.4 5.8-5.9 11.1-10.4 15.5-4.4 4.5-9.7 8-15.5 10.4-5.9 2.5-12.1 3.7-18.4 3.7h-137.2v-152.3h57.7l11-71.7h-68.8l0.1-46.5c0-19.7 9.6-38.8 40.4-38.8h31.2v-61c0 0-28.3-4.8-55.5-4.8-56.6 0-93.6 34.3-93.6 96.5v54.6h-63v71.7h63v152.3h-137.3c-6.3 0-12.5-1.2-18.4-3.7-5.8-2.4-11.1-5.9-15.5-10.4-4.5-4.4-8-9.7-10.4-15.5-2.5-5.9-3.7-12.1-3.7-18.4v-352c0-6.3 1.2-12.5 3.7-18.4 2.4-5.8 5.9-11.1 10.4-15.5 4.4-4.5 9.7-8 15.5-10.4 5.9-2.5 12.1-3.7 18.4-3.7h352c6.3 0 12.5 1.2 18.4 3.7z"/>
</svg>