<svg id="Layer_1" data-name="Layer 1" xmlns="http://www.w3.org/2000/svg" viewBox="0 0 170.1 170.1"><defs><style>.cls-1{fill:#fff;}</style></defs><path class="cls-1" d="M85.05,0A85.05,85.05,0,1,0,170.1,85.05,85.14,85.14,0,0,0,85.05,0Zm0,164.1a79.05,79.05,0,1,1,79.05-79A79.14,79.14,0,0,1,85.05,164.1Z"/><path class="cls-1" d="M61.77,70.14H44.09a2.64,2.64,0,0,0-2.68,2.68V98a2.67,2.67,0,0,0,5.33,0V88.12H59.82a2.43,2.43,0,1,0,0-4.86H46.74V75h15a2.43,2.43,0,1,0,0-4.85Z"/><path class="cls-1" d="M83,71.87a3.32,3.32,0,0,0-3.16-2.17h-.26a3.39,3.39,0,0,0-3.21,2.17L65.06,97a2.67,2.67,0,0,0-.35,1.21,2.45,2.45,0,0,0,2.47,2.47A2.56,2.56,0,0,0,69.65,99l2.56-5.85H86.94l2.47,5.67a2.74,2.74,0,0,0,2.6,1.87,2.5,2.5,0,0,0,2.51-2.56,2.36,2.36,0,0,0-.3-1.12Zm-8.7,16.55,5.32-12.26L84.9,88.42Z"/><path class="cls-1" d="M113.54,69.62A15.53,15.53,0,0,0,97.64,85.3v.09A15.39,15.39,0,0,0,113.45,101a15.78,15.78,0,0,0,9.23-2.86l2.16,1.95a2.55,2.55,0,0,0,4.38-1.78,2.58,2.58,0,0,0-1-2.07l-2-1.61a15.68,15.68,0,0,0,3.08-9.31v-.09A15.39,15.39,0,0,0,113.54,69.62Zm10.22,15.77a11.44,11.44,0,0,1-1.47,5.76l-3.9-3.56a2.64,2.64,0,0,0-1.87-.77A2.55,2.55,0,0,0,114,89.37a2.6,2.6,0,0,0,1,2.08l3.77,3.21A10.35,10.35,0,0,1,113.54,96c-6,0-10.31-4.85-10.31-10.74v-.09c0-5.89,4.2-10.7,10.22-10.7s10.31,4.9,10.31,10.79Z"/></svg>