<svg id="Layer_1" data-name="Layer 1" xmlns="http://www.w3.org/2000/svg" viewBox="0 0 193.5 170.1"><defs><style>.cls-1{fill:#fff;}</style></defs><path class="cls-1" d="M108.45,0A85,85,0,0,0,24.19,73.55,46.59,46.59,0,0,0,1.12,113.73a46.11,46.11,0,0,0,8.3,26.54L.22,163.08A3,3,0,0,0,3,167.21,2.88,2.88,0,0,0,4,167l27-9.82a46.61,46.61,0,0,0,32.79.22A85.05,85.05,0,1,0,108.45,0ZM32.17,151.22a3,3,0,0,0-2.17-.05L8.3,159.08,15.6,141a3,3,0,0,0-.38-2.93,40.18,40.18,0,0,1-8.1-24.32,40.52,40.52,0,1,1,25.05,37.49Zm76.28,12.88a78.83,78.83,0,0,1-38.06-9.75,46.54,46.54,0,0,0-39.61-84,79,79,0,1,1,77.67,93.74Z"/><path class="cls-1" d="M45.48,122.9a3,3,0,0,0-3.08,3v.43a3.08,3.08,0,0,0,6.15,0v-.43A3,3,0,0,0,45.48,122.9Z"/><path class="cls-1" d="M46.34,98.38a12.74,12.74,0,0,0-9.18,3.6,2.39,2.39,0,0,0,1.56,4.24,2.64,2.64,0,0,0,1.6-.6,8.44,8.44,0,0,1,5.89-2.39c3.12,0,5,1.69,5,4.12v.09c0,2.73-2.25,4.28-6.32,4.67a1.8,1.8,0,0,0-1.69,2.17l.43,3.73a1.89,1.89,0,0,0,1.87,1.73h.26A2,2,0,0,0,47.6,118l.17-2c4.81-.82,8.75-3.29,8.75-8.75v-.08C56.52,101.76,52.41,98.38,46.34,98.38Z"/><path class="cls-1" d="M109.74,57.42a3,3,0,0,0-3,3v62.93a3,3,0,0,0,6,0V60.42A3,3,0,0,0,109.74,57.42Z"/><path class="cls-1" d="M109.74,37.65a3,3,0,0,0-3,3v5.24a3,3,0,0,0,6,0V40.65A3,3,0,0,0,109.74,37.65Z"/></svg>