<svg id="Layer_1" data-name="Layer 1" xmlns="http://www.w3.org/2000/svg" viewBox="0 0 174.42 190.93"><defs><style>.cls-1{fill:#fff;}</style></defs><path class="cls-1" d="M119.93,76V3a3,3,0,0,0-3-3H3A3,3,0,0,0,0,3V154.91a3,3,0,0,0,3,3H64.92a57.48,57.48,0,1,0,55-81.88ZM6,151.91V6H113.93V76a57,57,0,0,0-26,7.81H37.05a3,3,0,0,0,0,6H79.53a58,58,0,0,0-10.92,12.52H37.05a3,3,0,0,0,0,6H65.22a57.29,57.29,0,0,0-2.72,43.55Zm110.93,33a51.49,51.49,0,1,1,51.49-51.49A51.55,51.55,0,0,1,116.93,184.93Z"/><path class="cls-1" d="M138.29,132.3H119.93V97a3,3,0,0,0-6,0V135.3a3,3,0,0,0,3,3h21.36a3,3,0,1,0,0-6Z"/><path class="cls-1" d="M37.05,35.17H96.84a3,3,0,0,0,0-6H37.05a3,3,0,0,0,0,6Z"/><path class="cls-1" d="M37.05,53.69H96.84a3,3,0,0,0,0-6H37.05a3,3,0,0,0,0,6Z"/><path class="cls-1" d="M37.05,72.21H96.84a3,3,0,0,0,0-6H37.05a3,3,0,0,0,0,6Z"/><path class="cls-1" d="M27.6,29.17H16.42a3,3,0,0,0,0,6H27.6a3,3,0,0,0,0-6Z"/><path class="cls-1" d="M27.6,47.69H16.42a3,3,0,0,0,0,6H27.6a3,3,0,0,0,0-6Z"/><path class="cls-1" d="M27.6,66.21H16.42a3,3,0,0,0,0,6H27.6a3,3,0,1,0,0-6Z"/><path class="cls-1" d="M27.6,83.84H16.42a3,3,0,0,0,0,6H27.6a3,3,0,0,0,0-6Z"/><path class="cls-1" d="M27.6,102.36H16.42a3,3,0,0,0,0,6H27.6a3,3,0,1,0,0-6Z"/></svg>