<svg id="Layer_1" data-name="Layer 1" xmlns="http://www.w3.org/2000/svg" viewBox="0 0 181.47 189.28"><defs><style>.cls-1{fill:#fff;}</style></defs><path class="cls-1" d="M180,41.63a3,3,0,0,0-3,0L130.14,68.47a3,3,0,1,0,3,5.2l42.35-24.26v99l-47.93,29.71V84.74a3,3,0,0,0-6,0v94L57.65,148.18V79.68a3,3,0,0,0-6,0v68.83L6,180.51V80.89L45,58a3,3,0,0,0-3-5.18L1.48,76.59A3,3,0,0,0,0,79.17V186.28a3,3,0,0,0,1.62,2.66,2.93,2.93,0,0,0,1.38.34,3,3,0,0,0,1.72-.54l50.22-35.21,68.31,32.67,0,0a3.65,3.65,0,0,0,.66.22h0a3.31,3.31,0,0,0,.55.06h.1l.2,0a3.86,3.86,0,0,0,.49-.09l.2-.06a2.65,2.65,0,0,0,.48-.23l.11,0,53.93-33.43a3,3,0,0,0,1.42-2.55V44.23A3,3,0,0,0,180,41.63Z"/><path class="cls-1" d="M55.77,58.18l32.17,49.26a3,3,0,0,0,2.51,1.36H91a3,3,0,0,0,2.51-1.36L125.7,58.18a2.26,2.26,0,0,0,.16-.26A39.75,39.75,0,0,0,91.07,0h-.66A39.73,39.73,0,0,0,55.62,57.92,2.2,2.2,0,0,0,55.77,58.18ZM90.74,6a33.75,33.75,0,0,1,33.52,33.72A33.26,33.26,0,0,1,120.59,55L90.74,100.76,60.88,55a33.26,33.26,0,0,1-3.67-15.31A33.75,33.75,0,0,1,90.74,6Z"/><path class="cls-1" d="M90.74,57.4A17.43,17.43,0,1,0,73.3,40,17.45,17.45,0,0,0,90.74,57.4Zm0-28.86A11.43,11.43,0,1,1,79.3,40,11.44,11.44,0,0,1,90.74,28.54Z"/></svg>