<svg version="1.2" xmlns="http://www.w3.org/2000/svg" viewBox="0 0 448 512" width="448" height="512">
	<title>tiktok-brands-svg</title>
	<style>
		.s0 { fill: #ffffff } 
	</style>
	<path id="Layer" class="s0" d="m448 209.9c-10.9 0-21.8-0.8-32.6-2.5-10.8-1.6-21.5-4.1-31.9-7.5-10.4-3.3-20.5-7.4-30.3-12.3-9.7-4.9-19.1-10.6-28-16.9v178.7c0 67.8-42.1 128.4-105.6 152.2-63.4 23.7-135 5.6-179.5-45.5-44.5-51.2-52.6-124.5-20.4-184.2 32.3-59.6 98.2-92.9 165.3-83.6v89.9c-30.8-9.7-64.3 1.5-83.1 27.7-18.7 26.3-18.5 61.6 0.5 87.6 19.1 26 52.8 36.8 83.4 26.8 30.7-10 51.4-38.7 51.4-70.9v-349.4h88q0 2.8 0.1 5.6 0.1 2.8 0.4 5.5 0.2 2.8 0.5 5.6 0.4 2.7 0.9 5.5c1.5 8.1 3.9 16.1 7 23.8 3.1 7.6 7.1 15 11.7 21.8 4.6 6.9 9.9 13.3 15.8 19.1 5.9 5.8 12.4 11 19.4 15.5q7.4 4.9 15.5 8.7 8 3.7 16.5 6.3 8.5 2.5 17.3 3.8 8.8 1.3 17.7 1.3z"/>
</svg>