<svg version="1.2" xmlns="http://www.w3.org/2000/svg" viewBox="0 0 24 24" width="24" height="24">
	<title>web-svg</title>
	<style>
		.s0 { fill: #ffffff } 
	</style>
	<path id="Layer" fill-rule="evenodd" class="s0" d="m12 0c6.6 0 12 5.4 12 12 0 6.6-5.4 12-12 12-6.6 0-12-5.4-12-12 0-6.6 5.4-12 12-12zm2.6 16h-5.2c0.6 2.5 1.5 4.1 2.6 5.7 1.2-1.7 2-3.4 2.6-5.7zm-7.2 0h-4.6c1.3 2.8 3.7 5 6.8 5.7q-1.6-2.6-2.2-5.7zm13.8 0h-4.6q-0.6 3-2.2 5.7c3-0.8 5.5-2.9 6.8-5.7zm-14-6h-5c-0.3 1.3-0.3 2.7 0 4h4.9q-0.2-2 0.1-4zm7.6 0h-5.6q-0.3 2-0.1 4h5.8q0.2-2-0.1-4zm7 0h-5q0.3 2 0.1 4h4.9c0.3-1.3 0.3-2.6 0-4zm-12.2-7.7c-3 0.7-5.5 2.9-6.8 5.7h4.7c0.4-2 1.2-4 2.1-5.7zm2.4-0.1c-1.1 1.8-1.9 3.5-2.5 5.8h5c-0.6-2.2-1.4-3.9-2.5-5.8zm2.4 0.1c1 1.8 1.7 3.8 2.1 5.7h4.7c-1.3-2.8-3.8-5-6.8-5.7z"/>
</svg>